{"asset":{"generator":"3D Builder","version":"2.0"},"scene":0,"scenes":[{"nodes":[0]}],"nodes":[{"children":[1,2,3]},{"mesh":0,"matrix":[2.5324013233184814,0,0,0,0,2.0508584976196289,-1.4856126308441162,0,0,1.4856107234954834,2.0508584976196289,0,0.010729857720434666,0.017709096893668175,-0.015267227776348591,1]},{"mesh":1,"matrix":[2.5324013233184814,0,0,0,0,2.0508584976196289,-1.4856126308441162,0,0,1.4856107234954834,2.0508584976196289,0,0.010729857720434666,0.017709096893668175,-0.015267227776348591,1]},{"mesh":2,"matrix":[2.5324013233184814,0,0,0,0,2.0508584976196289,-1.4856126308441162,0,0,1.4856107234954834,2.0508584976196289,0,0.010729857720434666,0.017709096893668175,-0.015267227776348591,1]}],"meshes":[{"primitives":[{"attributes":{"POSITION":0},"mode":4,"indices":1,"material":0}]},{"primitives":[{"attributes":{"POSITION":2},"mode":4,"indices":3,"material":0}]},{"primitives":[{"attributes":{"POSITION":4},"mode":4,"indices":5,"material":0}]}],"materials":[{"name":"Explorer_Default_0","pbrMetallicRoughness":{"baseColorFactor":[0.52711492776870728,0.52711492776870728,0.52711492776870728,1],"metallicFactor":0,"roughnessFactor":1},"alphaMode":"OPAQUE"}],"accessors":[{"bufferView":0,"byteOffset":0,"count":14026,"componentType":5126,"type":"VEC3","min":[-0.098002001643180847,-0.075000002980232239,0],"max":[0.083998017013072968,0.064000003039836884,0.012284001335501671]},{"bufferView":1,"byteOffset":0,"count":89298,"componentType":5125,"type":"SCALAR"},{"bufferView":2,"byteOffset":0,"count":40,"componentType":5126,"type":"VEC3","min":[0.0060000084340572357,0.033998008817434311,2.0000001313746907E-5],"max":[0.0080000078305602074,0.038000009953975677,2.6000001525972039E-5]},{"bufferView":3,"byteOffset":0,"count":228,"componentType":5125,"type":"SCALAR"},{"bufferView":4,"byteOffset":0,"count":29,"componentType":5126,"type":"VEC3","min":[0.079000018537044525,-0.011001995764672756,2.0000001313746907E-5],"max":[0.08100002259016037,-0.0070019992999732494,2.6000001525972039E-5]},{"bufferView":5,"byteOffset":0,"count":162,"componentType":5125,"type":"SCALAR"}],"bufferViews":[{"buffer":0,"byteOffset":0,"byteLength":168312,"byteStride":12,"target":34962},{"buffer":0,"byteOffset":168312,"byteLength":357192,"target":34963},{"buffer":0,"byteOffset":525504,"byteLength":480,"byteStride":12,"target":34962},{"buffer":0,"byteOffset":525984,"byteLength":912,"target":34963},{"buffer":0,"byteOffset":526896,"byteLength":348,"byteStride":12,"target":34962},{"buffer":0,"byteOffset":527244,"byteLength":648,"target":34963}],"buffers":[{"byteLength":527892,"uri":"pedro.bin"}]}